<svg xmlns="http://www.w3.org/2000/svg" width="64" height="64" shape-rendering="geometricPrecision" text-rendering="geometricPrecision" image-rendering="optimizeQuality" fill-rule="evenodd" clip-rule="evenodd" viewBox="0 0 640 640"><path d="M185.577 119.517c18.862 0 35.847 1.642 51.331 5.008 15.52 3.236 28.63 8.752 39.757 16.24 10.996 7.512 19.476 17.516 25.748 29.989 6 12.354 9 27.862 9 46.229 0 19.878-4.476 36.355-13.512 49.63-9.118 13.24-22.358 24-40.122 32.516 24.236 6.993 42.118 19.24 54.118 36.627 11.989 17.516 17.753 38.504 17.753 63.225 0 19.996-3.886 37.11-11.469 51.615-7.748 14.634-18.248 26.492-31.11 35.634-12.993 9.236-27.993 15.992-44.753 20.363-16.642 4.346-33.756 6.626-51.45 6.626H0V119.553l185.601.012-.023-.048zm232.042 31.76h159.616v38.883l-159.616-.012v-38.883.012zm35.469 293.448c11.764 11.469 28.63 17.233 50.646 17.233 15.745 0 29.516-4.016 40.867-12.012 11.35-7.996 18.248-16.465 20.882-25.229l68.965.012c-11.126 34.347-27.874 58.749-50.859 73.5-22.642 14.753-50.35 22.241-82.5 22.241-22.524 0-42.627-3.65-60.757-10.772-18.119-7.24-33.237-17.35-45.993-30.638-12.366-13.24-22.11-28.984-28.996-47.493-6.756-18.354-10.229-38.752-10.229-60.744 0-21.367 3.52-41.245 10.477-59.623 7.122-18.52 16.878-34.359 29.87-47.753 12.98-13.382 28.229-24 46.24-31.748 17.883-7.76 37.631-11.646 59.505-11.646 24.107 0 45.225 4.642 63.356 14.126 18 9.355 32.87 21.993 44.492 37.749 11.646 15.768 19.878 33.874 25.004 54.107 5.126 20.232 6.875 41.35 5.469 63.508H433.706c0 22.359 7.512 43.76 19.358 55.1l.024.082zm89.871-149.707c-9.236-10.24-25.122-15.874-44.233-15.874-12.52 0-22.866 2.114-31.11 6.366-8.115 4.229-14.752 9.473-19.878 15.745-4.997 6.248-8.516 13.004-10.465 20.102-1.996 6.874-3.236 13.24-3.65 18.756l127.502-.012c-1.878-19.984-8.752-34.736-18.118-45.106l-.047.023zm-368.662-16.524c15.355 0 28.099-3.65 38.091-11.008 9.992-7.24 14.752-19.24 14.752-35.752 0-9.106-1.63-16.76-4.878-22.642-3.354-5.87-7.76-10.512-13.37-13.748-5.516-3.355-11.74-5.646-19.099-6.886-7.122-1.358-14.634-1.984-22.24-1.984H86.576v91.973h87.745l-.024.047zm4.748 167.59c8.528 0 16.642-.757 24.213-2.528 7.748-1.748 14.634-4.359 20.363-8.35 5.752-3.887 10.641-8.989 14.114-15.745 3.52-6.638 5.126-15.118 5.126-25.477 0-20.232-5.764-34.748-17.114-43.512-11.351-8.646-26.47-12.874-45.214-12.874H86.552V445.93l92.493-.012v.165z"/></svg>