<?xml version="1.0" encoding="UTF-8" standalone="no"?>
<svg
   width="64"
   height="64"
   shape-rendering="geometricPrecision"
   text-rendering="geometricPrecision"
   image-rendering="optimizeQuality"
   fill-rule="evenodd"
   clip-rule="evenodd"
   viewBox="0 0 640 640"
   version="1.1"
   id="svg1"
   sodipodi:docname="dribbble.svg"
   inkscape:version="1.3.2 (091e20e, 2023-11-25, custom)"
   xmlns:inkscape="http://www.inkscape.org/namespaces/inkscape"
   xmlns:sodipodi="http://sodipodi.sourceforge.net/DTD/sodipodi-0.dtd"
   xmlns="http://www.w3.org/2000/svg"
   xmlns:svg="http://www.w3.org/2000/svg">
  <defs
     id="defs1" />
  <sodipodi:namedview
     id="namedview1"
     pagecolor="#ffffff"
     bordercolor="#000000"
     borderopacity="0.25"
     inkscape:showpageshadow="2"
     inkscape:pageopacity="0.0"
     inkscape:pagecheckerboard="0"
     inkscape:deskcolor="#d1d1d1"
     inkscape:zoom="12.828125"
     inkscape:cx="32"
     inkscape:cy="32"
     inkscape:window-width="1920"
     inkscape:window-height="1017"
     inkscape:window-x="-8"
     inkscape:window-y="-8"
     inkscape:window-maximized="1"
     inkscape:current-layer="svg1" />
  <path
     d="M320 640C143.529 640 0 496.494 0 320S143.482 0 320 0c176.471 0 320 143.482 320 320S496.494 640 320 640zm269.873-276.228c-9.354-3-84.65-25.359-170.246-11.646 35.752 98.234 50.245 178.242 53.127 194.884 61.24-41.48 105-107.127 117.12-183.238zM426.761 572.003c-4.122-24.012-19.878-107.517-58.23-207.239-.637.248-1.24.366-1.759.638-154.23 53.752-209.636 160.644-214.479 170.636 46.37 36.118 104.647 57.768 167.766 57.768 37.89 0 74.009-7.76 106.761-21.756l-.059-.047zm-309.89-68.883c6.248-10.642 81.249-134.754 222.121-180.357 3.52-1.11 7.122-2.232 10.76-3.236-6.874-15.52-14.362-31.11-22.122-46.359-136.36 40.879-268.87 39.119-280.87 39-.13 2.765-.13 5.517-.13 8.363 0 70.111 26.646 134.234 70.24 182.636v-.047zm-64.36-238.75c12.25.117 124.88.625 252.76-33.25-45.225-80.516-94.123-148.23-101.363-158.115-76.513 36.107-133.761 106.643-151.36 191.365h-.036zM256.008 54.65c7.512 10.11 57.237 77.765 102 159.994 97.242-36.366 138.357-91.773 143.247-98.765-48.249-42.874-111.757-68.882-181.242-68.882-21.992.118-43.524 2.763-63.993 7.63l-.012.023zm275.637 92.99c-5.764 7.748-51.65 66.52-152.648 107.765 6.354 12.992 12.508 26.244 18.118 39.638 1.996 4.76 4.004 9.354 5.882 14.114 90.993-11.35 181.36 6.886 190.372 8.752-.638-64.477-23.764-123.757-61.76-170.246l.035-.023z"
     id="path1" />
  <path
     style="fill:#ffffff;stroke-width:0.0779537"
     d="m 5.328973,26.250914 c 0.021245,-0.07503 0.1315912,-0.504751 0.2452147,-0.954933 1.7421832,-6.90263 6.3120213,-13.01165 12.4807373,-16.6844135 1.304163,-0.7764794 2.294057,-1.2745868 2.369414,-1.1922713 0.162698,0.1777232 2.278248,3.2484618 3.499996,5.0802728 2.151211,3.22539 4.564883,7.109375 6.068545,9.765258 l 0.46853,0.827557 -1.452386,0.358961 c -4.34436,1.073719 -8.874919,1.860522 -13.730096,2.384448 -2.88596,0.311426 -6.6959885,0.55015 -8.7945344,0.551035 -1.1000668,4.65e-4 -1.191007,-0.01023 -1.1554206,-0.135914 z"
     id="path2"
     transform="scale(10)" />
  <path
     style="fill:#ffffff;stroke-width:0.0779537"
     d="M 35.356329,20.560292 C 33.170847,16.595704 29.66984,11.067349 26.755384,6.9787498 c -0.564656,-0.7921383 -1.00124,-1.4633 -0.970187,-1.4914706 0.08027,-0.072815 1.633299,-0.3657357 2.636965,-0.4973636 4.448384,-0.5833918 8.881992,-0.091974 13.031391,1.4443896 1.348641,0.4993503 3.758222,1.6802348 4.928907,2.4155528 0.984366,0.618289 2.710824,1.886903 3.298058,2.423436 l 0.37411,0.34181 -0.436046,0.545676 c -0.584071,0.730916 -2.00449,2.165188 -2.963284,2.992183 -2.10206,1.813106 -4.552044,3.391324 -7.404147,4.769568 -1.112089,0.537404 -3.27922,1.475764 -3.408256,1.475764 -0.01354,0 -0.232494,-0.377101 -0.486566,-0.838003 z"
     id="path3"
     transform="scale(10)" />
  <path
     style="fill:#ffffff;stroke-width:0.0779537"
     d="m 58.777101,31.638383 c -1.904351,-0.369912 -5.181855,-0.784878 -7.717418,-0.977105 -2.102471,-0.159392 -7.307128,-0.135776 -9.159561,0.04156 -0.814617,0.07799 -1.495338,0.155796 -1.512714,0.172912 -0.01738,0.01712 -0.336021,-0.678833 -0.708098,-1.546555 -0.372078,-0.867721 -0.910043,-2.068784 -1.195477,-2.669027 -0.514163,-1.081239 -0.517354,-1.092037 -0.344277,-1.165183 4.184948,-1.768671 7.716495,-3.865721 10.815377,-6.422226 1.035801,-0.854511 3.086468,-2.850791 3.717021,-3.618438 0.237718,-0.289403 0.463522,-0.526188 0.501787,-0.526188 0.106895,0 1.302838,1.643087 1.957519,2.689404 2.440499,3.900423 3.802647,8.156484 4.113812,12.853693 0.04513,0.681225 0.0723,1.244662 0.06039,1.252083 -0.01191,0.0074 -0.249675,-0.0308 -0.528361,-0.08493 z"
     id="path4"
     transform="scale(10)" />
  <path
     style="fill:#ffffff;stroke-width:0.0779537"
     d="M 10.969383,49.395647 C 8.6320419,46.560639 6.7994645,43.122541 5.8113211,39.718607 5.0985843,37.263387 4.6772229,34.335228 4.6772229,31.837438 V 31.24347 l 2.7088916,-0.04623 c 8.0394305,-0.137214 17.2201515,-1.475144 24.4190015,-3.558644 0.450182,-0.130292 0.846098,-0.237112 0.879811,-0.237378 0.06266,-4.94e-4 1.317993,2.505391 1.900625,3.794016 l 0.323423,0.715327 -1.103696,0.357536 c -3.795731,1.229605 -7.474646,3.176587 -11.02464,5.834536 -3.886366,2.909798 -7.716084,6.974248 -10.405,11.042743 -0.384155,0.581251 -0.70366,1.062206 -0.710011,1.068789 -0.0064,0.0066 -0.319661,-0.361748 -0.696245,-0.818514 z"
     id="path5"
     transform="scale(10)" />
  <path
     style="fill:#ffffff;stroke-width:0.0779537"
     d="M 30.518879,59.307443 C 25.42409,59.036961 20.284119,57.205037 16.075941,54.159872 l -0.801039,-0.579655 0.249824,-0.441753 c 2.609465,-4.614203 6.980148,-9.009205 12.226797,-12.294828 1.721576,-1.078108 3.772439,-2.151049 5.808414,-3.038766 0.869952,-0.379312 3.250652,-1.297809 3.274673,-1.2634 0.0072,0.01035 0.226107,0.597629 0.486401,1.305059 2.065055,5.612426 3.781232,11.634177 4.889171,17.155207 0.235423,1.17315 0.402286,2.156563 0.370806,2.185363 -0.03148,0.0288 -0.478187,0.2112 -0.992681,0.405334 -3.453781,1.303215 -7.376967,1.911042 -11.069428,1.71501 z"
     id="path6"
     transform="scale(10)" />
  <path
     style="fill:#ffffff;stroke-width:0.0779537"
     d="m 47.288389,54.471217 c -0.02238,-0.07561 -0.115132,-0.540888 -0.206112,-1.033945 -0.884986,-4.796092 -2.983253,-12.464886 -4.703046,-17.188795 -0.187308,-0.514494 -0.319114,-0.957796 -0.292904,-0.985114 0.02621,-0.02732 0.503685,-0.105674 1.061054,-0.174125 4.746566,-0.582924 10.078348,-0.204514 14.869671,1.055336 0.503776,0.132465 0.915678,0.280192 0.915338,0.328282 -0.0013,0.179478 -0.39375,1.968722 -0.589323,2.686603 -1.045382,3.837249 -2.96814,7.478148 -5.563735,10.535385 -1.321445,1.556471 -3.431571,3.497828 -4.990497,4.591352 -0.398435,0.279487 -0.465179,0.304163 -0.500446,0.185021 z"
     id="path7"
     transform="scale(10)" />
</svg>
