<?xml version="1.0" encoding="UTF-8" standalone="no"?>
<!-- Uploaded to: SVG Repo, www.svgrepo.com, Generator: SVG Repo Mixer Tools -->

<svg
   width="800px"
   height="800px"
   viewBox="0 0 20 20"
   version="1.1"
   id="svg1"
   sodipodi:docname="github.svg"
   inkscape:version="1.3.2 (091e20e, 2023-11-25, custom)"
   xmlns:inkscape="http://www.inkscape.org/namespaces/inkscape"
   xmlns:sodipodi="http://sodipodi.sourceforge.net/DTD/sodipodi-0.dtd"
   xmlns="http://www.w3.org/2000/svg"
   xmlns:svg="http://www.w3.org/2000/svg">
  <sodipodi:namedview
     id="namedview1"
     pagecolor="#ffffff"
     bordercolor="#000000"
     borderopacity="0.25"
     inkscape:showpageshadow="2"
     inkscape:pageopacity="0.0"
     inkscape:pagecheckerboard="0"
     inkscape:deskcolor="#d1d1d1"
     inkscape:zoom="1.02625"
     inkscape:cx="449.69549"
     inkscape:cy="561.75396"
     inkscape:window-width="1920"
     inkscape:window-height="1017"
     inkscape:window-x="-8"
     inkscape:window-y="-8"
     inkscape:window-maximized="1"
     inkscape:current-layer="svg1" />
  <title
     id="title1">github [#142]</title>
  <desc
     id="desc1">Created with Sketch.</desc>
  <defs
     id="defs1" />
  <g
     id="Page-1"
     stroke="none"
     stroke-width="1"
     fill="none"
     fill-rule="evenodd">
    <g
       id="Dribbble-Light-Preview"
       transform="translate(-140.000000, -7559.000000)"
       fill="#000000">
      <g
         id="icons"
         transform="translate(56.000000, 160.000000)">
        <path
           d="M94,7399 C99.523,7399 104,7403.59 104,7409.253 C104,7413.782 101.138,7417.624 97.167,7418.981 C96.66,7419.082 96.48,7418.762 96.48,7418.489 C96.48,7418.151 96.492,7417.047 96.492,7415.675 C96.492,7414.719 96.172,7414.095 95.813,7413.777 C98.04,7413.523 100.38,7412.656 100.38,7408.718 C100.38,7407.598 99.992,7406.684 99.35,7405.966 C99.454,7405.707 99.797,7404.664 99.252,7403.252 C99.252,7403.252 98.414,7402.977 96.505,7404.303 C95.706,7404.076 94.85,7403.962 94,7403.958 C93.15,7403.962 92.295,7404.076 91.497,7404.303 C89.586,7402.977 88.746,7403.252 88.746,7403.252 C88.203,7404.664 88.546,7405.707 88.649,7405.966 C88.01,7406.684 87.619,7407.598 87.619,7408.718 C87.619,7412.646 89.954,7413.526 92.175,7413.785 C91.889,7414.041 91.63,7414.493 91.54,7415.156 C90.97,7415.418 89.522,7415.871 88.63,7414.304 C88.63,7414.304 88.101,7413.319 87.097,7413.247 C87.097,7413.247 86.122,7413.234 87.029,7413.87 C87.029,7413.87 87.684,7414.185 88.139,7415.37 C88.139,7415.37 88.726,7417.2 91.508,7416.58 C91.513,7417.437 91.522,7418.245 91.522,7418.489 C91.522,7418.76 91.338,7419.077 90.839,7418.982 C86.865,7417.627 84,7413.783 84,7409.253 C84,7403.59 88.478,7399 94,7399"
           id="github-[#142]" />
      </g>
    </g>
  </g>
  <path
     style="fill:#808080;stroke-width:0.025"
     d="m 7.1571952,19.964355 5.6327388,-0.0086 -0.180868,-0.08613 -5.2882285,0.01723 z"
     id="path4" />
  <path
     style="fill:#ffffff;stroke-width:0.68902"
     d="m 296.79335,793.00233 c 4.50983,-5.68597 4.50363,-5.61278 4.19831,-49.52256 -0.15134,-21.76445 -0.49083,-39.7874 -0.75442,-40.05098 -0.26359,-0.2636 -3.04496,0.0284 -6.18081,0.64885 -10.89835,2.15634 -20.23681,3.23819 -31.53981,3.65386 -26.35038,0.96902 -48.26094,-4.53754 -66.74599,-16.7746 -11.92051,-7.89136 -23.98919,-22.24443 -29.05674,-34.55669 -6.90602,-16.77909 -12.04067,-26.56895 -19.38523,-36.96044 -6.11227,-8.64798 -16.12051,-18.57717 -23.99408,-23.80457 -3.60013,-2.39019 -8.76824,-6.55814 -11.48469,-9.26212 -7.7544,-7.7188 -7.55242,-11.757 0.73159,-14.6268 4.96603,-1.72037 15.5636,-1.54742 22.66197,0.36983 19.70414,5.32202 36.44616,19.15854 50.46277,41.70521 15.19704,24.44547 31.70678,37.22332 53.952,41.75661 8.38213,1.70817 22.29531,1.87958 31.4917,0.38797 12.20264,-1.97921 29.69888,-7.88653 30.66684,-10.35415 0.2973,-0.75793 1.04964,-4.16857 1.67185,-7.57922 2.99822,-16.43476 10.58661,-32.38295 20.24691,-42.55208 2.07266,-2.18183 3.64157,-4.07082 3.48647,-4.19775 -0.1551,-0.12694 -4.15773,-0.75456 -8.89475,-1.39471 -64.39563,-8.70233 -108.5519,-30.58738 -136.422,-67.61446 -18.92582,-25.14408 -29.91713,-55.59848 -34.93745,-96.80368 -0.93783,-7.69742 -1.21966,-15.28924 -1.22776,-33.07296 -0.0114,-24.96727 0.58126,-30.72407 4.85621,-47.17202 5.73137,-22.05156 16.96303,-43.93639 31.38778,-61.15889 2.22826,-2.66045 4.05138,-5.15469 4.05138,-5.54278 0,-0.38809 -0.94556,-3.65747 -2.10125,-7.2653 -3.94085,-12.3025 -5.10237,-21.2435 -5.1188,-39.40267 -0.0189,-20.89044 1.81731,-32.68804 8.23078,-52.88228 l 1.8053,-5.68442 h 17.28052 17.28051 l 6.97747,2.34273 c 18.60604,6.2471 39.25638,16.86672 61.18486,31.46486 l 8.04306,5.35439 12.08651,-2.99794 c 57.47175,-14.25533 120.33812,-14.14878 177.80634,0.30135 l 10.79211,2.71363 9.78139,-6.41732 c 22.30848,-14.63602 44.8343,-26.00146 62.04724,-31.30605 4.26663,-1.31486 6.37066,-1.45565 21.75481,-1.45565 h 17.03134 l 2.17951,6.71795 c 5.62617,17.34169 7.72415,29.36276 8.21031,47.04369 0.5111,18.58825 -1.12318,31.58063 -5.77839,45.93756 l -1.83135,5.64797 2.00439,2.51049 c 22.0011,27.55635 31.90148,49.15371 37.25854,81.27833 1.78422,10.69941 1.79753,48.40436 0.0222,63.04533 -4.17741,34.45185 -12.75903,61.90657 -26.27392,84.05681 -27.32536,44.78492 -72.61172,69.93119 -143.87281,79.88864 -5.58674,0.78065 -10.38207,1.41936 -10.65628,1.41936 -0.27421,0 1.08274,1.62781 3.01545,3.61735 10.46317,10.77085 17.97871,26.41877 21.53192,44.83107 2.69047,13.94169 2.9379,22.5406 2.42288,84.20212 -0.53573,64.14172 -0.60363,62.78995 3.45401,68.76922 l 1.71702,2.53016 -95.92528,0.003 c -52.75889,0.002 -99.93383,0.20721 -104.8332,0.45706 l -8.90793,0.45428 z"
     id="path6"
     transform="scale(0.025)" />
</svg>
