<?xml version="1.0" encoding="UTF-8" standalone="no"?>
<!-- Uploaded to: SVG Repo, www.svgrepo.com, Generator: SVG Repo Mixer Tools -->

<svg
   fill="#000000"
   width="800px"
   height="800px"
   viewBox="0 0 24 24"
   role="img"
   version="1.1"
   id="svg1"
   sodipodi:docname="kofi.svg"
   inkscape:version="1.3.2 (091e20e, 2023-11-25, custom)"
   xmlns:inkscape="http://www.inkscape.org/namespaces/inkscape"
   xmlns:sodipodi="http://sodipodi.sourceforge.net/DTD/sodipodi-0.dtd"
   xmlns="http://www.w3.org/2000/svg"
   xmlns:svg="http://www.w3.org/2000/svg">
  <defs
     id="defs1" />
  <sodipodi:namedview
     id="namedview1"
     pagecolor="#ffffff"
     bordercolor="#000000"
     borderopacity="0.25"
     inkscape:showpageshadow="2"
     inkscape:pageopacity="0.0"
     inkscape:pagecheckerboard="0"
     inkscape:deskcolor="#d1d1d1"
     inkscape:zoom="1.02625"
     inkscape:cx="400"
     inkscape:cy="400"
     inkscape:window-width="1920"
     inkscape:window-height="1017"
     inkscape:window-x="-8"
     inkscape:window-y="-8"
     inkscape:window-maximized="1"
     inkscape:current-layer="svg1" />
  <path
     d="M23.881 8.948c-.773-4.085-4.859-4.593-4.859-4.593H.723c-.604 0-.679.798-.679.798s-.082 7.324-.022 11.822c.164 2.424 2.586 2.672 2.586 2.672s8.267-.023 11.966-.049c2.438-.426 2.683-2.566 2.658-3.734 4.352.24 7.422-2.831 6.649-6.916zm-11.062 3.511c-1.246 1.453-4.011 3.976-4.011 3.976s-.121.119-.31.023c-.076-.057-.108-.09-.108-.09-.443-.441-3.368-3.049-4.034-3.954-.709-.965-1.041-2.7-.091-3.71.951-1.01 3.005-1.086 4.363.407 0 0 1.565-1.782 3.468-.963 1.904.82 1.832 3.011.723 4.311zm6.173.478c-.928.116-1.682.028-1.682.028V7.284h1.77s1.971.551 1.971 2.638c0 1.913-.985 2.667-2.059 3.015z"
     id="path1" />
  <path
     style="fill:#ffffff;stroke-width:0.974421"
     d="M 264.28792,530.35405 C 200.19025,470.8995 168.09731,439.75077 153.37897,422.7082 123.20103,387.76471 114.57806,339.57864 132.31384,304.99391 c 5.05846,-9.86398 18.5123,-23.06529 28.95291,-28.40945 14.36007,-7.3504 26.63915,-10.30774 42.85784,-10.32205 28.27162,-0.025 54.58076,10.79048 76.99203,31.65068 l 6.81698,6.34519 7.60727,-7.15637 c 4.184,-3.936 11.20162,-9.54711 15.59471,-12.46912 32.8402,-21.84325 65.02299,-25.33652 95.72269,-10.39017 26.69538,12.99681 41.98962,34.22497 45.38201,62.98947 3.29658,27.9521 -7.13954,56.80838 -29.92298,82.73825 -20.1117,22.88914 -64.21361,66.84252 -110.50142,110.12927 -4.02005,3.75941 -10.23103,9.5694 -13.80219,12.91108 -10.25385,9.59498 -9.38476,9.92113 -33.72577,-12.65664 z"
     id="path2"
     transform="scale(0.03)" />
</svg>
