<?xml version="1.0" encoding="UTF-8" standalone="no"?>
<!-- Uploaded to: SVG Repo, www.svgrepo.com, Generator: SVG Repo Mixer Tools -->

<svg
   fill="#000000"
   width="800px"
   height="800px"
   viewBox="0 0 24 24"
   role="img"
   version="1.1"
   id="svg1"
   sodipodi:docname="producthunt.svg"
   inkscape:version="1.3.2 (091e20e, 2023-11-25, custom)"
   xmlns:inkscape="http://www.inkscape.org/namespaces/inkscape"
   xmlns:sodipodi="http://sodipodi.sourceforge.net/DTD/sodipodi-0.dtd"
   xmlns="http://www.w3.org/2000/svg"
   xmlns:svg="http://www.w3.org/2000/svg">
  <defs
     id="defs1" />
  <sodipodi:namedview
     id="namedview1"
     pagecolor="#ffffff"
     bordercolor="#000000"
     borderopacity="0.25"
     inkscape:showpageshadow="2"
     inkscape:pageopacity="0.0"
     inkscape:pagecheckerboard="0"
     inkscape:deskcolor="#d1d1d1"
     inkscape:zoom="1.02625"
     inkscape:cx="400"
     inkscape:cy="400"
     inkscape:window-width="1920"
     inkscape:window-height="1017"
     inkscape:window-x="-8"
     inkscape:window-y="-8"
     inkscape:window-maximized="1"
     inkscape:current-layer="svg1" />
  <title
     id="title1">Product Hunt icon</title>
  <path
     d="M13.604 8.4h-3.405V12h3.405c.995 0 1.801-.806 1.801-1.801 0-.993-.805-1.799-1.801-1.799zM12 0C5.372 0 0 5.372 0 12s5.372 12 12 12 12-5.372 12-12S18.628 0 12 0zm1.604 14.4h-3.405V18H7.801V6h5.804c2.319 0 4.2 1.88 4.2 4.199 0 2.321-1.881 4.201-4.201 4.201z"
     id="path1" />
  <path
     style="fill:#ffffff;stroke-width:0.974421"
     d="M 260.17052,399.9628 V 200.1692 l 104.5067,0.31927 c 116.25135,0.35516 110.91994,0.0672 132.16083,7.13767 73.22463,24.37423 112.74347,102.13913 89.21429,175.55527 -3.65733,11.41165 -13.23074,29.91381 -20.39652,39.41954 -20.89806,27.72225 -51.19396,47.19931 -83.80442,53.87741 -13.96917,2.86066 -26.43924,3.35809 -85.01827,3.39138 l -57.73447,0.0328 v 59.92692 59.92691 h -39.46407 -39.46407 z m 208.52619,-1.41028 c 16.55239,-4.39914 31.59941,-16.72166 38.7797,-31.75803 4.75301,-9.95334 6.04369,-15.7962 6.04369,-27.35954 0,-10.48257 -1.81543,-18.14914 -6.5204,-27.53572 -4.67422,-9.32523 -16.67378,-21.22672 -25.88962,-25.67805 -13.75644,-6.64448 -11.33538,-6.43798 -79.89205,-6.81423 l -62.11937,-0.34093 V 339.53301 400 l 62.11937,-0.0116 c 51.37338,-0.01 63.04647,-0.25795 67.47868,-1.43591 z"
     id="path2"
     transform="scale(0.03)" />
</svg>
