<?xml version="1.0" encoding="UTF-8" standalone="no"?>
<svg
   viewBox="0 0 256 256"
   version="1.1"
   id="svg4"
   sodipodi:docname="read-cv.svg"
   inkscape:version="1.3.2 (091e20e, 2023-11-25, custom)"
   xmlns:inkscape="http://www.inkscape.org/namespaces/inkscape"
   xmlns:sodipodi="http://sodipodi.sourceforge.net/DTD/sodipodi-0.dtd"
   xmlns="http://www.w3.org/2000/svg"
   xmlns:svg="http://www.w3.org/2000/svg">
  <defs
     id="defs4" />
  <sodipodi:namedview
     id="namedview4"
     pagecolor="#ffffff"
     bordercolor="#000000"
     borderopacity="0.25"
     inkscape:showpageshadow="2"
     inkscape:pageopacity="0.0"
     inkscape:pagecheckerboard="0"
     inkscape:deskcolor="#d1d1d1"
     inkscape:zoom="3.2070312"
     inkscape:cx="128"
     inkscape:cy="128"
     inkscape:window-width="1920"
     inkscape:window-height="1017"
     inkscape:window-x="-8"
     inkscape:window-y="-8"
     inkscape:window-maximized="1"
     inkscape:current-layer="svg4" />
  <rect
     width="256"
     height="256"
     fill="none"
     id="rect1" />
  <rect
     x="53.87"
     y="34.21"
     width="148.27"
     height="187.59"
     rx="8"
     transform="translate(24.22 -20.31) rotate(10.02)"
     fill="none"
     stroke="currentColor"
     stroke-linecap="round"
     stroke-linejoin="round"
     stroke-width="16"
     id="rect2" />
  <line
     x1="97.22"
     y1="59.81"
     x2="180.2"
     y2="74.47"
     fill="none"
     stroke="currentColor"
     stroke-linecap="round"
     stroke-linejoin="round"
     stroke-width="16"
     id="line2" />
  <line
     x1="174.66"
     y1="105.98"
     x2="91.67"
     y2="91.33"
     fill="none"
     stroke="currentColor"
     stroke-linecap="round"
     stroke-linejoin="round"
     stroke-width="16"
     id="line3" />
  <line
     x1="127.62"
     y1="130.17"
     x2="86.13"
     y2="122.84"
     fill="none"
     stroke="currentColor"
     stroke-linecap="round"
     stroke-linejoin="round"
     stroke-width="16"
     id="line4" />
  <path
     style="fill:#ffffff;stroke-width:0.311815"
     d="m 153.72473,219.5396 c -12.77662,-2.27386 -41.7641,-7.40827 -64.416623,-11.4098 l -41.186411,-7.27552 0.429995,-2.36137 c 0.236498,-1.29875 6.931969,-39.16607 14.878826,-84.1496 7.946856,-44.983521 14.517587,-81.856984 14.601624,-81.941021 0.08404,-0.08404 29.335819,5.004031 65.003949,11.306818 54.49668,9.629911 64.83346,11.536088 64.74033,11.93859 -0.0609,0.263438 -6.70548,37.873375 -14.76563,83.577633 -8.06014,45.70427 -14.72716,83.41438 -14.81559,83.80025 -0.0943,0.41161 -0.38387,0.69057 -0.70053,0.67494 -0.29686,-0.0147 -10.99333,-1.88706 -23.76994,-4.16092 z m -23.62786,-81.57575 c 1.77734,-0.49361 3.69848,-2.13962 4.67178,-4.00272 1.79662,-3.43912 0.83059,-7.97069 -2.18249,-10.23795 -0.73608,-0.55388 -1.85862,-1.1448 -2.49452,-1.31315 -3.16478,-0.83787 -42.262327,-7.58293 -44.030739,-7.59613 -4.492176,-0.0336 -8.107186,3.55201 -8.107186,8.04115 0,3.12809 2.184868,6.37377 5.01199,7.44545 1.699204,0.64411 42.247725,7.90434 44.410665,7.95174 0.85749,0.0188 2.08172,-0.11098 2.7205,-0.28839 z m 47.99273,-24.55557 c 1.40918,-0.57134 3.14233,-2.33038 3.90073,-3.95899 0.8181,-1.7568 0.95977,-4.16268 0.36249,-6.1562 -0.49003,-1.63557 -2.73805,-4.095628 -4.32164,-4.729258 C 176.88292,98.104389 92.879516,83.09866 91.455772,83.09866 c -1.436746,0 -3.831244,1.008721 -5.149971,2.169511 -1.986803,1.748858 -2.858395,3.888983 -2.667392,6.549581 0.238853,3.327099 1.860777,5.689776 4.763941,6.939699 1.008263,0.434096 82.19793,14.948709 85.43443,15.273469 1.15309,0.11571 3.15445,-0.17731 4.25282,-0.62264 z m 5.82044,-31.740922 c 5.02872,-2.505922 5.95114,-9.51609 1.7388,-13.214573 -0.64075,-0.562583 -1.62734,-1.216059 -2.19242,-1.452166 C 182.89134,66.76451 163.30926,63.19297 139.9407,59.063861 94.822216,51.091647 96.048309,51.263435 93.509853,52.558459 c -2.791844,1.424292 -4.314891,3.945985 -4.320909,7.154087 -0.0067,3.548128 1.896112,6.42874 5.024316,7.606333 2.089699,0.786653 83.28933,15.087605 85.87655,15.124655 1.78262,0.02553 2.5066,-0.121567 3.82023,-0.776176 z"
     id="path4" />
</svg>
