<?xml version="1.0" encoding="UTF-8" standalone="no"?>
<!-- Uploaded to: SVG Repo, www.svgrepo.com, Generator: SVG Repo Mixer Tools -->

<svg
   fill="#000000"
   width="800px"
   height="800px"
   viewBox="0 0 32 32"
   version="1.1"
   id="svg1"
   sodipodi:docname="reddit.svg"
   inkscape:version="1.3.2 (091e20e, 2023-11-25, custom)"
   xmlns:inkscape="http://www.inkscape.org/namespaces/inkscape"
   xmlns:sodipodi="http://sodipodi.sourceforge.net/DTD/sodipodi-0.dtd"
   xmlns="http://www.w3.org/2000/svg"
   xmlns:svg="http://www.w3.org/2000/svg">
  <defs
     id="defs1" />
  <sodipodi:namedview
     id="namedview1"
     pagecolor="#ffffff"
     bordercolor="#000000"
     borderopacity="0.25"
     inkscape:showpageshadow="2"
     inkscape:pageopacity="0.0"
     inkscape:pagecheckerboard="0"
     inkscape:deskcolor="#d1d1d1"
     inkscape:zoom="1.02625"
     inkscape:cx="400"
     inkscape:cy="400"
     inkscape:window-width="1920"
     inkscape:window-height="1017"
     inkscape:window-x="-8"
     inkscape:window-y="-8"
     inkscape:window-maximized="1"
     inkscape:current-layer="svg1" />
  <title
     id="title1">reddit</title>
  <path
     d="M12.606 20.986c-0.225 0.001-0.407 0.183-0.407 0.408 0 0.112 0.045 0.214 0.118 0.288l-0-0c0.952 0.716 2.155 1.146 3.457 1.146 0.085 0 0.17-0.002 0.255-0.006l-0.012 0c0.081 0.004 0.175 0.006 0.27 0.006 1.294 0 2.488-0.431 3.445-1.158l-0.014 0.010c0.077-0.081 0.124-0.19 0.124-0.311 0-0.101-0.033-0.194-0.089-0.269l0.001 0.001c-0.074-0.074-0.177-0.119-0.29-0.119s-0.215 0.045-0.29 0.119l0-0c-0.799 0.575-1.798 0.919-2.877 0.919-0.092 0-0.184-0.003-0.275-0.007l0.013 0.001c-0.082 0.005-0.178 0.008-0.274 0.008-1.075 0-2.070-0.345-2.88-0.93l0.014 0.010c-0.074-0.073-0.175-0.119-0.287-0.119-0.001 0-0.002 0-0.003 0h0zM19.436 16c-0.861 0.001-1.56 0.699-1.56 1.561s0.699 1.561 1.561 1.561 1.561-0.699 1.561-1.561v0c-0.002-0.862-0.7-1.56-1.562-1.561h-0zM12.563 16c0.861 0 1.56 0.699 1.56 1.56s-0.699 1.56-1.56 1.56-1.56-0.699-1.56-1.56c0-0.861 0.698-1.56 1.56-1.56h0zM22.261 6.933c0.852 0.006 1.54 0.698 1.54 1.551 0 0.857-0.694 1.551-1.551 1.551-0.828 0-1.505-0.65-1.549-1.467l-0-0.004-3.245-0.684-1 4.682c2.185 0.049 4.201 0.737 5.878 1.884l-0.037-0.024c0.38-0.379 0.905-0.614 1.485-0.614 0.008 0 0.017 0 0.025 0h-0.001c1.21 0.001 2.191 0.982 2.192 2.192v0c-0.007 0.88-0.513 1.64-1.249 2.011l-0.013 0.006c0.033 0.191 0.052 0.412 0.052 0.637 0 0.005 0 0.009-0 0.014v-0.001c0 3.367-3.911 6.086-8.752 6.086s-8.752-2.719-8.752-6.086c0-0.001 0-0.003 0-0.005 0-0.234 0.020-0.463 0.057-0.687l-0.003 0.024c-0.771-0.35-1.298-1.114-1.298-2.001 0-1.21 0.981-2.191 2.191-2.191 0 0 0.001 0 0.001 0h-0c0.586 0.006 1.116 0.238 1.509 0.613l-0.001-0.001c1.66-1.148 3.711-1.841 5.924-1.858l0.004-0 1.106-5.226c0.028-0.103 0.090-0.189 0.173-0.245l0.002-0.001c0.063-0.037 0.139-0.059 0.22-0.059 0.027 0 0.054 0.003 0.080 0.007l-0.003-0 3.631 0.771c0.247-0.522 0.77-0.876 1.375-0.876 0.003 0 0.007 0 0.010 0h-0.001zM16 1.004c0 0 0 0-0 0-8.282 0-14.996 6.714-14.996 14.996s6.714 14.996 14.996 14.996c8.282 0 14.996-6.714 14.996-14.996 0-4.141-1.678-7.89-4.392-10.604v0c-2.714-2.714-6.463-4.392-10.604-4.392v0z"
     id="path1" />
  <path
     style="fill:#ffffff;stroke-width:0.974421"
     d="m 373.69062,617.21978 c -50.25339,-4.74699 -94.16117,-20.17055 -130.57247,-45.86641 -10.88262,-7.67999 -30.63294,-27.14007 -37.43329,-36.88321 -15.54962,-22.27858 -22.72686,-43.75842 -22.79138,-68.2095 -0.0177,-6.69915 0.27512,-13.11723 0.65066,-14.2624 0.58469,-1.78293 -0.12673,-2.53773 -4.95076,-5.25256 -11.64364,-6.55275 -22.68489,-21.44186 -25.63254,-34.56543 -1.54125,-6.86198 -1.29985,-19.42646 0.50394,-26.23001 5.10124,-19.24086 21.83936,-34.83875 41.90672,-39.05194 8.54433,-1.79391 11.92992,-1.79477 20.37753,-0.005 8.08058,1.71187 16.93742,5.73417 23.17998,10.52711 l 4.58066,3.51695 10.03566,-6.32257 c 37.13626,-23.39623 80.73018,-36.98581 127.9542,-39.88729 l 10.73217,-0.65939 13.93211,-65.80806 c 7.66267,-36.19442 14.59172,-66.81473 15.3979,-68.04512 3.3093,-5.05062 3.75883,-5.00363 53.68477,5.61121 l 46.42068,9.86957 1.52939,-2.22806 c 4.51857,-6.58278 11.5446,-12.96337 17.50307,-15.89517 5.86105,-2.88386 7.19162,-3.15091 15.69909,-3.15091 8.48502,0 9.84645,0.27136 15.61817,3.11308 8.04869,3.96279 14.81754,10.73189 18.7799,18.78059 2.84399,5.77695 3.11309,7.1299 3.11309,15.6516 0,8.82486 -0.19829,9.72923 -3.67585,16.76561 -4.1829,8.46351 -9.57993,13.8305 -18.13059,18.02967 -4.92444,2.41836 -6.5102,2.6899 -15.70879,2.6899 -9.06121,0 -10.8687,-0.29869 -15.80323,-2.61151 -11.14047,-5.22153 -20.34897,-17.1145 -21.81637,-28.17626 -0.41495,-3.12804 -1.16181,-4.8878 -2.21003,-5.20733 -2.70296,-0.82393 -80.40391,-17.05905 -80.57254,-16.83512 -0.58332,0.77461 -24.90053,116.86573 -24.55239,117.21387 0.24033,0.24032 5.87668,0.85292 12.52524,1.36131 25.46687,1.9474 50.19144,7.12701 72.98961,15.29078 14.87775,5.32755 38.12738,16.58183 50.89187,24.63485 l 9.47895,5.98021 4.88873,-3.86431 c 6.35825,-5.02591 14.19448,-8.68245 22.27947,-10.39604 8.22914,-1.74415 12.59012,-1.73258 21.10897,0.056 20.24252,4.24997 36.65551,19.70464 41.91444,39.46715 1.82361,6.85293 1.82843,20.39808 0.01,27.23225 -3.44653,12.95093 -13.82448,27.15395 -24.53036,33.57167 l -4.72631,2.83322 -0.0429,17.14242 c -0.0367,14.65934 -0.36371,18.34216 -2.25747,25.42501 -10.79178,40.3625 -42.11123,74.69894 -89.24229,97.83893 -26.15191,12.83985 -53.74454,20.97292 -86.28922,25.4342 -13.5363,1.85558 -53.05012,2.67052 -66.74787,1.37661 z m 58.46529,-48.17835 c 18.42947,-3.26567 40.44956,-12.23789 55.6375,-22.66983 7.68269,-5.27691 9.76629,-9.14221 8.12751,-15.0774 -1.31319,-4.75599 -4.03343,-6.85877 -8.95283,-6.92068 -3.4666,-0.0436 -5.56898,0.88851 -12.88894,5.71458 -15.31046,10.09423 -33.36281,16.62158 -52.70163,19.05576 -13.31783,1.67633 -42.24636,0.66311 -53.04622,-1.85794 -15.43429,-3.60288 -28.36642,-9.05053 -41.33343,-17.41168 -8.75667,-5.64631 -10.38893,-6.21313 -14.56855,-5.05909 -4.68474,1.29353 -7.43541,5.01397 -7.43541,10.05681 0,5.3911 1.51957,7.28117 10.45603,13.00538 19.87825,12.73295 41.08862,20.14432 64.81951,22.64935 11.49007,1.21291 41.50908,0.3536 51.88646,-1.48526 z m -101.4733,-94.31174 c 11.27172,-5.16036 19.80269,-16.3965 22.15922,-29.18589 3.1243,-16.95616 -6.33624,-34.96266 -22.30047,-42.44508 -4.98493,-2.33644 -6.70081,-2.61151 -16.29045,-2.61151 -9.95247,0 -11.17156,0.21466 -17.05516,3.00298 -8.11724,3.84689 -15.07182,10.80147 -18.91871,18.91872 -2.76138,5.82671 -3.00298,7.15969 -3.00298,16.56795 0,9.41435 0.24018,10.73724 3.00759,16.56516 9.28314,19.54954 32.8007,28.16096 52.40096,19.18767 z m 168.97613,1.21738 c 9.96166,-3.41209 17.43455,-10.45291 22.44794,-21.15003 2.32263,-4.95584 2.61926,-6.74977 2.61926,-15.84067 0,-9.627 -0.19583,-10.6497 -3.21254,-16.77751 -4.09282,-8.31371 -10.66066,-14.87436 -18.70915,-18.68867 -5.8836,-2.78832 -7.10269,-3.00298 -17.05516,-3.00298 -9.58964,0 -11.30552,0.27507 -16.29045,2.61151 -25.01895,11.72637 -30.70112,45.41139 -10.83035,64.20434 11.16846,10.56266 26.18981,13.72725 41.03045,8.64401 z"
     id="path2"
     transform="scale(0.04)" />
</svg>
